<svg width="1283" height="134" viewBox="0 0 1283 134" fill="none" xmlns="http://www.w3.org/2000/svg">
<rect x="418" y="79" width="493" height="24" rx="12" fill="#7166F4" fill-opacity="0.66"/>
<rect x="418.5" y="79.5" width="492" height="23" rx="11.5" stroke="#7166F4" stroke-opacity="0.66"/>
<path d="M1091 93.1575L1085.53 104.247L1073.29 106.029L1082.15 114.656L1080.06 126.842L1091.01 121.085L1101.95 126.834L1099.86 114.649L1108.71 106.016L1096.47 104.243L1091 93.1575Z" fill="#7166F4" fill-opacity="0.66"/>
<path d="M1091 93.1575L1085.53 104.247L1073.29 106.029L1082.15 114.656L1080.06 126.842L1091.01 121.085L1101.95 126.834L1099.86 114.649L1108.71 106.016L1096.47 104.243L1091 93.1575Z" stroke="#7166F4" stroke-opacity="0.66" stroke-width="2" stroke-miterlimit="10" stroke-linecap="round" stroke-linejoin="round"/>
<path d="M98.9952 77.1575L93.5276 88.2466L81.293 90.0291L90.1497 98.6559L88.0642 110.842L99.0056 105.085L109.951 110.834L107.857 98.6493L116.707 90.0159L104.471 88.2425L98.9952 77.1575Z" fill="#7166F4" fill-opacity="0.66"/>
<path d="M98.9952 77.1575L93.5276 88.2466L81.293 90.0291L90.1497 98.6559L88.0642 110.842L99.0056 105.085L109.951 110.834L107.857 98.6493L116.707 90.0159L104.471 88.2425L98.9952 77.1575Z" stroke="#7166F4" stroke-opacity="0.66" stroke-width="2" stroke-miterlimit="10" stroke-linecap="round" stroke-linejoin="round"/>
<path d="M1259 62.1575L1253.53 73.2466L1241.29 75.0291L1250.15 83.6559L1248.06 95.8425L1259.01 90.0851L1269.95 95.8343L1267.86 83.6493L1276.71 75.0159L1264.47 73.2425L1259 62.1575Z" fill="#7166F4" fill-opacity="0.66"/>
<path d="M1259 62.1575L1253.53 73.2466L1241.29 75.0291L1250.15 83.6559L1248.06 95.8425L1259.01 90.0851L1269.95 95.8343L1267.86 83.6493L1276.71 75.0159L1264.47 73.2425L1259 62.1575Z" stroke="#7166F4" stroke-opacity="0.66" stroke-width="2" stroke-miterlimit="10" stroke-linecap="round" stroke-linejoin="round"/>
<path d="M227.995 64.1575L222.528 75.2466L210.293 77.0291L219.15 85.6559L217.064 97.8425L228.006 92.0851L238.951 97.8343L236.857 85.6493L245.707 77.0159L233.471 75.2425L227.995 64.1575Z" fill="#7166F4" fill-opacity="0.66"/>
<path d="M227.995 64.1575L222.528 75.2466L210.293 77.0291L219.15 85.6559L217.064 97.8425L228.006 92.0851L238.951 97.8343L236.857 85.6493L245.707 77.0159L233.471 75.2425L227.995 64.1575Z" stroke="#7166F4" stroke-opacity="0.66" stroke-width="2" stroke-miterlimit="10" stroke-linecap="round" stroke-linejoin="round"/>
<path d="M1158 7.15753L1152.53 18.2466L1140.29 20.0291L1149.15 28.6559L1147.06 40.8425L1158.01 35.0851L1168.95 40.8343L1166.86 28.6493L1175.71 20.0159L1163.47 18.2425L1158 7.15753Z" fill="#5E3FA2" fill-opacity="0.66"/>
<path d="M1158 7.15753L1152.53 18.2466L1140.29 20.0291L1149.15 28.6559L1147.06 40.8425L1158.01 35.0851L1168.95 40.8343L1166.86 28.6493L1175.71 20.0159L1163.47 18.2425L1158 7.15753Z" stroke="#7166F4" stroke-opacity="0.66" stroke-width="2" stroke-miterlimit="10" stroke-linecap="round" stroke-linejoin="round"/>
<path d="M23.9952 7.15753L18.5276 18.2466L6.29297 20.0291L15.1497 28.6559L13.0642 40.8425L24.0056 35.0851L34.9514 40.8343L32.8568 28.6493L41.7071 20.0159L29.4712 18.2425L23.9952 7.15753Z" fill="#5E3FA2" fill-opacity="0.6"/>
<path d="M23.9952 7.15753L18.5276 18.2466L6.29297 20.0291L15.1497 28.6559L13.0642 40.8425L24.0056 35.0851L34.9514 40.8343L32.8568 28.6493L41.7071 20.0159L29.4712 18.2425L23.9952 7.15753Z" stroke="#5E3FA1" stroke-opacity="0.66" stroke-width="2" stroke-miterlimit="10" stroke-linecap="round" stroke-linejoin="round"/>
</svg>
